<mxfile host="app.diagrams.net" modified="2023-04-08T19:11:41.909Z" agent="Mozilla/5.0 (Linux; Android 9; SM-A202F) AppleWebKit/537.36 (KHTML, like Gecko) Chrome/111.0.0.0 Mobile Safari/537.36" version="21.1.5" etag="FjTKPDa7qrDh96igxJCQ" type="github">
  <diagram name="PÃ¡gina-1" id="_KeOvMy0hhCTa3SYTGbe">
    <mxGraphModel>
      <root>
        <mxCell id="0" />
        <mxCell id="1" parent="0" />
      </root>
    </mxGraphModel>
  </diagram>
</mxfile>
